# xmcd CD database file
#
# Track frame offsets:
#	150
#	25242
#	44340
#	67799
#	81416
#	108669
#	121873
#	141288
#	169367
#	186716
#	198840
#	221654
#
# Disc length: 3165 seconds
#
# Revision: 0
# Processed by: cddbd v1.5.2PL0 Copyright (c) Steve Scherf et al.
# Submitted via: CDex 1.70beta2
#
DISCID=b40c5b0c
DTITLE=Susana Sheiman and Ignasi Terraza Trio - Swing Appeal
DYEAR=2011
DGENRE=Jazz
TTITLE0=I'm Glad There is You
TTITLE1=P.S. I Love You
TTITLE2=Spring Can Really Hang You up The Most
TTITLE3=Just One of Those Things
TTITLE4=Good Morning Heartache
TTITLE5=Where or When
TTITLE6=Emotional Dance
TTITLE7=Glad to Be Unhappy
TTITLE8=Never Let Me Go
TTITLE9=Don't Ever Leave Me
TTITLE10=It Don't Mean a Thing (If it ain't got that swing)
TTITLE11=There'll Be Another Spring
EXTD=YEAR: 2011
EXTT0=
EXTT1=
EXTT2=
EXTT3=
EXTT4=
EXTT5=
EXTT6=
EXTT7=
EXTT8=
EXTT9=
EXTT10=
EXTT11=
PLAYORDER=
